<svg class="diagram-root" style="background: #f5f6f6" xmlns="http://www.w3.org/2000/svg" xmlns:xlink="http://www.w3.org/1999/xlink"><style>.diagram-root { font-family: "Helvetica Neue", sans-serif; font-size: 12px; } .t { overflow: visible; } .t-bg { y: 40; fill: #fff;   } .th { fill: #005aa0;   } .tht { fill: #fff; font-size: 14px;  } .tf { fill: #323c46; overflow: visible; } .tf.pk { fill: #005aa0; font-weight: bold; } .tf.fk { font-weight: bold; } .ty { fill: #adb1b5; font-weight: normal; text-anchor: end; } .r { fill: transparent; stroke: #c3c3c3; stroke-width: 1; } .l { stroke: 1; } .i { fill: #c2c7ce; stroke: #c2c7ce; } .i.ix { fill: #afb3b6; stroke: #000; } .fa { fill: transparent; overflow: visible; } .fa .bg.hover { fill: #f7f7f7; } .c { cy: 12; r: 4; stroke: #d2d2dc; fill: #d2d2dc; } .hr { fill: transparent; stroke: #323c46; stroke-opacity: 0.035; stroke-width: 13; } .dc { stroke: #fa5a3c; fill: #fa5a3c; } .x { stroke: white; stroke-width: 1; } .hl .th { fill: #1b9bff; } .hl .tht {  } .fhl .bg { fill: #e7f4ff; } .fhls .bg {  } .r.hl { stroke: #1b9bff; } .dim { opacity: 0.25; }</style><g class="drawing-wrapper" transform="translate(8.428571428571448, -52.857142857142776) scale(1,1)"><g class="rs"><path d="M 325.7142857142852 243.42857142857113 m -1, 0 a 1,1 0 1,0 2,0 a 1,1 0 1,0 -2,0 M 325.7142857142852 243.42857142857113 m -0.5, 0 a 0.5,0.5 0 1,0 1,0 a 0.5,0.5 0 1,0 -1,0  M325.7142857142852 243.42857142857113 L325.7142857142852 243.42857142857113 313.7142857142852 243.42857142857113 M 325.7142857142852 249.42857142857113 m -1, 0 a 1,1 0 1,0 2,0 a 1,1 0 1,0 -2,0 M 325.7142857142852 249.42857142857113 m -0.5, 0 a 0.5,0.5 0 1,0 1,0 a 0.5,0.5 0 1,0 -1,0  M325.7142857142852 249.42857142857113 L325.7142857142852 249.42857142857113 318.7142857142852 243.42857142857113 325.7142857142852 237.42857142857113 M 325.7142857142852 237.42857142857113 m -1, 0 a 1,1 0 1,0 2,0 a 1,1 0 1,0 -2,0 M 325.7142857142852 237.42857142857113 m -0.5, 0 a 0.5,0.5 0 1,0 1,0 a 0.5,0.5 0 1,0 -1,0  M313.7142857142852 243.42857142857113 Q 284.83 243.42857142857113, 255.94 290.21 T 198.16 336.99999999999955 M 186.16 336.99999999999955 m -1, 0 a 1,1 0 1,0 2,0 a 1,1 0 1,0 -2,0 M 186.16 336.99999999999955 m -0.5, 0 a 0.5,0.5 0 1,0 1,0 a 0.5,0.5 0 1,0 -1,0  M186.16 336.99999999999955 L186.16 336.99999999999955 198.16 336.99999999999955 M192.16 342.99999999999955 L192.16 342.99999999999955 192.16 330.99999999999955" id="h2458000309" class="r"></path><path d="M 782.38 139.85714285714278 m -1, 0 a 1,1 0 1,0 2,0 a 1,1 0 1,0 -2,0 M 782.38 139.85714285714278 m -0.5, 0 a 0.5,0.5 0 1,0 1,0 a 0.5,0.5 0 1,0 -1,0  M782.38 139.85714285714278 L782.38 139.85714285714278 794.38 139.85714285714278 M 782.38 145.85714285714278 m -1, 0 a 1,1 0 1,0 2,0 a 1,1 0 1,0 -2,0 M 782.38 145.85714285714278 m -0.5, 0 a 0.5,0.5 0 1,0 1,0 a 0.5,0.5 0 1,0 -1,0  M782.38 145.85714285714278 L782.38 145.85714285714278 789.38 139.85714285714278 782.38 133.85714285714278 M 782.38 133.85714285714278 m -1, 0 a 1,1 0 1,0 2,0 a 1,1 0 1,0 -2,0 M 782.38 133.85714285714278 m -0.5, 0 a 0.5,0.5 0 1,0 1,0 a 0.5,0.5 0 1,0 -1,0  M794.38 139.85714285714278 Q 829.57 139.85714285714278, 864.76 180.57 T 935.1428571428569 221.28571428571476 M 947.1428571428569 221.28571428571476 m -1, 0 a 1,1 0 1,0 2,0 a 1,1 0 1,0 -2,0 M 947.1428571428569 221.28571428571476 m -0.5, 0 a 0.5,0.5 0 1,0 1,0 a 0.5,0.5 0 1,0 -1,0  M947.1428571428569 221.28571428571476 L947.1428571428569 221.28571428571476 935.1428571428569 221.28571428571476 M941.1428571428569 227.28571428571476 L941.1428571428569 227.28571428571476 941.1428571428569 215.28571428571476" id="h1922651903" class="r"></path><path d="M 623.5714285714281 164.85714285714278 m -1, 0 a 1,1 0 1,0 2,0 a 1,1 0 1,0 -2,0 M 623.5714285714281 164.85714285714278 m -0.5, 0 a 0.5,0.5 0 1,0 1,0 a 0.5,0.5 0 1,0 -1,0  M623.5714285714281 164.85714285714278 L623.5714285714281 164.85714285714278 611.5714285714281 164.85714285714278 M 623.5714285714281 170.85714285714278 m -1, 0 a 1,1 0 1,0 2,0 a 1,1 0 1,0 -2,0 M 623.5714285714281 170.85714285714278 m -0.5, 0 a 0.5,0.5 0 1,0 1,0 a 0.5,0.5 0 1,0 -1,0  M623.5714285714281 170.85714285714278 L623.5714285714281 170.85714285714278 616.5714285714281 164.85714285714278 623.5714285714281 158.85714285714278 M 623.5714285714281 158.85714285714278 m -1, 0 a 1,1 0 1,0 2,0 a 1,1 0 1,0 -2,0 M 623.5714285714281 158.85714285714278 m -0.5, 0 a 0.5,0.5 0 1,0 1,0 a 0.5,0.5 0 1,0 -1,0  M611.5714285714281 164.85714285714278 Q 590.79 164.85714285714278, 570 191.64 T 528.42 218.42857142857113 M 516.42 218.42857142857113 m -1, 0 a 1,1 0 1,0 2,0 a 1,1 0 1,0 -2,0 M 516.42 218.42857142857113 m -0.5, 0 a 0.5,0.5 0 1,0 1,0 a 0.5,0.5 0 1,0 -1,0  M516.42 218.42857142857113 L516.42 218.42857142857113 528.42 218.42857142857113 M522.42 224.42857142857113 L522.42 224.42857142857113 522.42 212.42857142857113" id="h3020985493" class="r"></path><path d="M 177.05 188.42857142857136 m -1, 0 a 1,1 0 1,0 2,0 a 1,1 0 1,0 -2,0 M 177.05 188.42857142857136 m -0.5, 0 a 0.5,0.5 0 1,0 1,0 a 0.5,0.5 0 1,0 -1,0  M177.05 188.42857142857136 L177.05 188.42857142857136 189.05 188.42857142857136 M 177.05 194.42857142857136 m -1, 0 a 1,1 0 1,0 2,0 a 1,1 0 1,0 -2,0 M 177.05 194.42857142857136 m -0.5, 0 a 0.5,0.5 0 1,0 1,0 a 0.5,0.5 0 1,0 -1,0  M177.05 194.42857142857136 L177.05 194.42857142857136 184.05 188.42857142857136 177.05 182.42857142857136 M 177.05 182.42857142857136 m -1, 0 a 1,1 0 1,0 2,0 a 1,1 0 1,0 -2,0 M 177.05 182.42857142857136 m -0.5, 0 a 0.5,0.5 0 1,0 1,0 a 0.5,0.5 0 1,0 -1,0  M189.05 188.42857142857136 Q 220.22 188.42857142857136, 251.38 203.43 T 313.7142857142852 218.42857142857113 M 325.7142857142852 218.42857142857113 m -1, 0 a 1,1 0 1,0 2,0 a 1,1 0 1,0 -2,0 M 325.7142857142852 218.42857142857113 m -0.5, 0 a 0.5,0.5 0 1,0 1,0 a 0.5,0.5 0 1,0 -1,0  M325.7142857142852 218.42857142857113 L325.7142857142852 218.42857142857113 313.7142857142852 218.42857142857113 M319.7142857142852 224.42857142857113 L319.7142857142852 224.42857142857113 319.7142857142852 212.42857142857113" id="h2247644470" class="r"></path><path d="M 642.1428571428553 321.2857142857139 m -1, 0 a 1,1 0 1,0 2,0 a 1,1 0 1,0 -2,0 M 642.1428571428553 321.2857142857139 m -0.5, 0 a 0.5,0.5 0 1,0 1,0 a 0.5,0.5 0 1,0 -1,0  M642.1428571428553 321.2857142857139 L642.1428571428553 321.2857142857139 630.1428571428553 321.2857142857139 M 642.1428571428553 327.2857142857139 m -1, 0 a 1,1 0 1,0 2,0 a 1,1 0 1,0 -2,0 M 642.1428571428553 327.2857142857139 m -0.5, 0 a 0.5,0.5 0 1,0 1,0 a 0.5,0.5 0 1,0 -1,0  M642.1428571428553 327.2857142857139 L642.1428571428553 327.2857142857139 635.1428571428553 321.2857142857139 642.1428571428553 315.2857142857139 M 642.1428571428553 315.2857142857139 m -1, 0 a 1,1 0 1,0 2,0 a 1,1 0 1,0 -2,0 M 642.1428571428553 315.2857142857139 m -0.5, 0 a 0.5,0.5 0 1,0 1,0 a 0.5,0.5 0 1,0 -1,0  M630.1428571428553 321.2857142857139 Q 604.71 321.2857142857139, 579.28 269.86 T 528.42 218.42857142857113 M 516.42 218.42857142857113 m -1, 0 a 1,1 0 1,0 2,0 a 1,1 0 1,0 -2,0 M 516.42 218.42857142857113 m -0.5, 0 a 0.5,0.5 0 1,0 1,0 a 0.5,0.5 0 1,0 -1,0  M516.42 218.42857142857113 L516.42 218.42857142857113 528.42 218.42857142857113 M522.42 224.42857142857113 L522.42 224.42857142857113 522.42 212.42857142857113" id="h1053952164" class="r"></path><path d="M 800.95 346.2857142857139 m -1, 0 a 1,1 0 1,0 2,0 a 1,1 0 1,0 -2,0 M 800.95 346.2857142857139 m -0.5, 0 a 0.5,0.5 0 1,0 1,0 a 0.5,0.5 0 1,0 -1,0  M800.95 346.2857142857139 L800.95 346.2857142857139 812.95 346.2857142857139 M 800.95 352.2857142857139 m -1, 0 a 1,1 0 1,0 2,0 a 1,1 0 1,0 -2,0 M 800.95 352.2857142857139 m -0.5, 0 a 0.5,0.5 0 1,0 1,0 a 0.5,0.5 0 1,0 -1,0  M800.95 352.2857142857139 L800.95 352.2857142857139 807.95 346.2857142857139 800.95 340.2857142857139 M 800.95 340.2857142857139 m -1, 0 a 1,1 0 1,0 2,0 a 1,1 0 1,0 -2,0 M 800.95 340.2857142857139 m -0.5, 0 a 0.5,0.5 0 1,0 1,0 a 0.5,0.5 0 1,0 -1,0  M812.95 346.2857142857139 Q 843.5 346.2857142857139, 874.05 283.79 T 935.1428571428569 221.28571428571476 M 947.1428571428569 221.28571428571476 m -1, 0 a 1,1 0 1,0 2,0 a 1,1 0 1,0 -2,0 M 947.1428571428569 221.28571428571476 m -0.5, 0 a 0.5,0.5 0 1,0 1,0 a 0.5,0.5 0 1,0 -1,0  M947.1428571428569 221.28571428571476 L947.1428571428569 221.28571428571476 935.1428571428569 221.28571428571476 M941.1428571428569 227.28571428571476 L941.1428571428569 227.28571428571476 941.1428571428569 215.28571428571476" id="h2270991258" class="r"></path></g><g class="hrs"></g><g class="ts"><svg width="190.71" height="225" x="325.7142857142852" y="161.42857142857113" id="h3299212598" class="t"><rect height="40" width="190.71" class="th"></rect><text x="13" y="25" class="tht">Employees</text><rect height="185" width="190.71" class="t-bg" y="40"></rect><text x="13" y="61" class="tf pk">EMP_NO<tspan x="177.71" class="ty">int</tspan></text><path d="M7,14A2,2 0 0,1 5,12A2,2 0 0,1 7,10A2,2 0 0,1 9,12A2,2 0 0,1 7,14M12.65,10C11.83,7.67 9.61,6 7, 6A6, 6 0 0, 0 1, 12A6, 6 0 0, 0 7, 18C9.61, 18 11.83, 16.33 12.65, 14H17V18H21V14H23V10H12.65Z" class="i pk" transform="translate(142.9238671875, 48) scale(0.65)"></path><text x="13" y="86" class="tf fk">EMP_TITLE_ID<tspan x="177.71" class="ty">varchar</tspan></text><text x="13" y="111" class="tf">BIRTH_DATE<tspan x="177.71" class="ty">date</tspan></text><text x="13" y="136" class="tf">FIRST_NAME<tspan x="177.71" class="ty">varchar</tspan></text><text x="13" y="161" class="tf">LAST_NAME<tspan x="177.71" class="ty">varchar</tspan></text><text x="13" y="186" class="tf">GENDER<tspan x="177.71" class="ty">varchar</tspan></text><text x="13" y="211" class="tf">HIRE_DATE<tspan x="177.71" class="ty">date</tspan></text></svg><svg width="172.59" height="100" x="13.571428571428552" y="279.99999999999955" id="h3517680912" class="t"><rect height="40" width="172.59" class="th"></rect><text x="13" y="25" class="tht">Titles</text><rect height="60" width="172.59" class="t-bg" y="40"></rect><text x="13" y="61" class="tf pk">TITLE_ID<tspan x="159.59" class="ty">varchar</tspan></text><path d="M7,14A2,2 0 0,1 5,12A2,2 0 0,1 7,10A2,2 0 0,1 9,12A2,2 0 0,1 7,14M12.65,10C11.83,7.67 9.61,6 7, 6A6, 6 0 0, 0 1, 12A6, 6 0 0, 0 7, 18C9.61, 18 11.83, 16.33 12.65, 14H17V18H21V14H23V10H12.65Z" class="i pk" transform="translate(92.9073828125, 48) scale(0.65)"></path><text x="13" y="86" class="tf">TITLE<tspan x="159.59" class="ty">varchar</tspan></text></svg><svg width="119.91" height="100" x="57.142857142856656" y="131.42857142857136" id="h3858243705" class="t"><rect height="40" width="119.91" class="th"></rect><text x="13" y="25" class="tht">Salaries</text><rect height="60" width="119.91" class="t-bg" y="40"></rect><text x="13" y="61" class="tf fk">EMP_NO<tspan x="106.91" class="ty">int</tspan></text><text x="13" y="86" class="tf">SALARY<tspan x="106.91" class="ty">int</tspan></text></svg><svg width="158.81" height="100" x="623.5714285714281" y="82.85714285714278" id="h2403958395" class="t"><rect height="40" width="158.81" class="th"></rect><text x="13" y="25" class="tht">Dept_manager</text><rect height="60" width="158.81" class="t-bg" y="40"></rect><text x="13" y="61" class="tf fk">DEPT_NO<tspan x="145.81" class="ty">varchar</tspan></text><text x="13" y="86" class="tf fk">EMP_NO<tspan x="145.81" class="ty">int</tspan></text></svg><svg width="158.81" height="100" x="642.1428571428553" y="264.2857142857139" id="h4086156755" class="t"><rect height="40" width="158.81" class="th"></rect><text x="13" y="25" class="tht">Dept_emp</text><rect height="60" width="158.81" class="t-bg" y="40"></rect><text x="13" y="61" class="tf fk">EMP_NO<tspan x="145.81" class="ty">int</tspan></text><text x="13" y="86" class="tf fk">DEPT_NO<tspan x="145.81" class="ty">varchar</tspan></text></svg><svg width="178.81" height="100" x="947.1428571428569" y="164.28571428571476" id="h3708248841" class="t"><rect height="40" width="178.81" class="th"></rect><text x="13" y="25" class="tht">Departments</text><rect height="60" width="178.81" class="t-bg" y="40"></rect><text x="13" y="61" class="tf pk">DEPT_NO<tspan x="165.81" class="ty">varchar</tspan></text><path d="M7,14A2,2 0 0,1 5,12A2,2 0 0,1 7,10A2,2 0 0,1 9,12A2,2 0 0,1 7,14M12.65,10C11.83,7.67 9.61,6 7, 6A6, 6 0 0, 0 1, 12A6, 6 0 0, 0 7, 18C9.61, 18 11.83, 16.33 12.65, 14H17V18H21V14H23V10H12.65Z" class="i pk" transform="translate(99.1273828125, 48) scale(0.65)"></path><text x="13" y="86" class="tf">DEP_NAME<tspan x="165.81" class="ty">varchar</tspan></text></svg></g></g><text class="qdbd-link" x="10" y="20">www.quickdatabasediagrams.com</text></svg>